<?xml version="1.0" encoding="utf-8" ?>
<svg baseProfile="tiny" height="572" version="1.2" width="802" xmlns="http://www.w3.org/2000/svg" xmlns:ev="http://www.w3.org/2001/xml-events" xmlns:xlink="http://www.w3.org/1999/xlink">
<defs /><path d="M 539,386 536,389 535,389 528,396 527,396 519,404 518,404 511,411 510,411 503,418 502,418 494,426 493,426 486,433 485,433 480,438 487,445 488,445 495,452 496,452 503,459 504,459 512,467 513,467 520,474 521,474 528,481 529,481 537,489 538,489 539,490 540,490 543,487 544,487 551,480 552,480 560,472 561,472 568,465 569,465 576,458 577,458 585,450 586,450 593,443 594,443 599,438 596,435 595,435 588,428 587,428 579,420 578,420 571,413 570,413 562,405 561,405 554,398 553,398 546,391 545,391 540,386 Z M 363,386 360,389 359,389 352,396 351,396 344,403 343,403 335,411 334,411 327,418 326,418 319,425 318,425 310,433 309,433 304,438 311,445 312,445 319,452 320,452 328,460 329,460 336,467 337,467 344,474 345,474 353,482 354,482 361,489 362,489 363,490 364,490 367,487 368,487 376,479 377,479 384,472 385,472 392,465 393,465 401,457 402,457 409,450 410,450 417,443 418,443 423,438 420,435 419,435 412,428 411,428 403,420 402,420 395,413 394,413 387,406 386,406 378,398 377,398 370,391 369,391 364,386 Z M 338,102 337,103 336,103 335,104 334,104 332,106 331,106 330,107 329,107 328,108 327,108 325,110 324,110 323,111 322,111 321,112 320,112 318,114 317,114 316,115 315,115 313,117 312,117 311,118 310,118 309,119 308,119 306,121 305,121 304,122 303,122 302,123 301,123 299,125 298,125 297,126 296,126 294,128 293,128 292,129 291,129 290,130 289,130 288,131 289,132 289,133 290,134 290,135 292,137 292,138 293,139 293,140 294,141 294,142 296,144 296,145 297,146 297,147 299,149 299,150 300,151 300,152 301,153 301,154 303,156 303,157 304,158 304,159 305,160 305,161 307,163 307,164 308,165 308,166 309,167 309,168 311,170 311,171 312,172 312,173 314,175 314,176 315,177 315,178 316,179 316,180 318,182 318,183 319,184 319,185 320,186 320,187 322,189 322,190 323,191 323,192 324,193 324,194 326,196 326,197 327,198 327,199 329,201 329,202 330,203 330,204 331,205 331,206 333,208 333,209 334,210 334,211 335,212 335,213 337,215 337,216 338,217 338,218 340,220 340,221 341,222 341,223 342,224 342,225 344,227 344,228 345,229 345,230 346,231 346,232 348,234 348,235 349,236 349,237 350,238 350,239 352,241 352,242 353,243 353,244 355,246 355,247 356,248 356,249 357,250 357,251 359,253 359,254 360,255 360,256 361,257 361,258 363,260 363,261 364,262 364,263 365,264 365,265 367,267 367,268 368,269 368,270 370,272 370,273 371,274 371,275 372,276 372,277 373,277 374,276 375,276 376,275 377,275 379,273 380,273 381,272 382,272 383,271 384,271 386,269 387,269 388,268 389,268 391,266 392,266 393,265 394,265 395,264 396,264 398,262 399,262 400,261 401,261 402,260 403,260 405,258 406,258 407,257 408,257 409,256 410,256 412,254 413,254 414,253 415,253 417,251 418,251 419,250 420,250 421,249 422,249 423,248 422,247 422,246 420,244 420,243 419,242 419,241 418,240 418,239 416,237 416,236 415,235 415,234 413,232 413,231 412,230 412,229 411,228 411,227 409,225 409,224 408,223 408,222 407,221 407,220 405,218 405,217 404,216 404,215 403,214 403,213 401,211 401,210 400,209 400,208 398,206 398,205 397,204 397,203 396,202 396,201 394,199 394,198 393,197 393,196 392,195 392,194 390,192 390,191 389,190 389,189 388,188 388,187 386,185 386,184 385,183 385,182 383,180 383,179 382,178 382,177 381,176 381,175 379,173 379,172 378,171 378,170 377,169 377,168 375,166 375,165 374,164 374,163 372,161 372,160 371,159 371,158 370,157 370,156 368,154 368,153 367,152 367,151 366,150 366,149 364,147 364,146 363,145 363,144 362,143 362,142 360,140 360,139 359,138 359,137 357,135 357,134 356,133 356,132 355,131 355,130 353,128 353,127 352,126 352,125 351,124 351,123 349,121 349,120 348,119 348,118 347,117 347,116 345,114 345,113 344,112 344,111 343,110 343,109 341,107 341,106 340,105 340,104 Z M 225,102 223,104 222,103 124,103 124,160 192,160 194,162 194,163 195,164 195,165 196,166 196,167 198,169 198,170 199,171 199,172 200,173 200,174 202,176 202,177 203,178 203,179 204,180 204,181 206,183 206,184 207,185 207,186 209,188 209,189 210,190 210,191 211,192 211,193 213,195 213,196 214,197 214,198 215,199 215,200 217,202 217,203 218,204 218,205 219,206 219,207 221,209 221,210 222,211 222,212 224,214 224,215 225,216 225,217 226,218 226,219 228,221 228,222 229,223 229,224 230,225 230,226 232,228 232,229 233,230 233,231 235,233 235,234 236,235 236,236 237,237 237,238 239,240 239,241 240,242 240,243 241,244 241,245 243,247 243,248 244,249 244,250 245,251 245,252 247,254 247,255 248,256 248,257 250,259 250,260 251,261 251,262 252,263 252,264 254,266 254,267 255,268 255,269 256,270 256,271 258,273 258,274 259,275 259,276 260,277 260,278 262,280 262,281 263,282 263,283 265,285 265,286 266,287 266,288 267,289 267,290 269,292 269,293 270,294 270,295 271,296 271,297 273,299 273,300 274,301 274,302 275,303 275,304 277,306 277,307 278,308 278,309 280,311 280,312 281,313 281,314 282,315 282,316 284,318 284,319 285,320 285,321 286,322 286,323 288,325 288,326 289,327 289,328 291,330 291,331 292,332 292,333 293,334 293,335 295,337 295,338 296,339 296,340 297,341 297,342 299,344 299,345 300,346 300,347 301,348 301,349 303,351 303,352 304,353 304,354 306,356 306,357 307,358 307,359 308,360 308,361 310,363 310,364 311,365 311,366 312,367 312,368 314,370 315,369 587,369 587,312 348,312 345,309 345,308 344,307 344,306 343,305 343,304 341,302 341,301 340,300 340,299 338,297 338,296 337,295 337,294 336,293 336,292 334,290 334,289 333,288 333,287 332,286 332,285 330,283 330,282 329,281 329,280 328,279 328,278 326,276 326,275 325,274 325,273 323,271 323,270 322,269 322,268 321,267 321,266 319,264 319,263 318,262 318,261 317,260 317,259 315,257 315,256 314,255 314,254 313,253 313,252 311,250 311,249 310,248 310,247 308,245 308,244 307,243 307,242 306,241 306,240 304,238 304,237 303,236 303,235 302,234 302,233 300,231 300,230 299,229 299,228 298,227 298,226 296,224 296,223 295,222 295,221 293,219 293,218 292,217 292,216 291,215 291,214 289,212 289,211 288,210 288,209 287,208 287,207 285,205 285,204 284,203 284,202 282,200 282,199 281,198 281,197 280,196 280,195 278,193 278,192 277,191 277,190 276,189 276,188 274,186 274,185 273,184 273,183 272,182 272,181 270,179 270,178 269,177 269,176 267,174 267,173 266,172 266,171 265,170 265,169 263,167 263,166 262,165 262,164 261,163 261,162 259,160 259,159 258,158 258,157 257,156 257,155 255,153 255,152 254,151 254,150 252,148 252,147 251,146 251,145 250,144 250,143 248,141 248,140 247,139 247,138 246,137 246,136 244,134 244,133 243,132 243,131 241,129 241,128 240,127 240,126 239,125 239,124 237,122 237,121 236,120 236,119 235,118 235,117 233,115 233,114 232,113 232,112 231,111 231,110 229,108 229,107 228,106 228,105 226,103 226,102 Z " fill="#fff" /></svg>